<svg width="18" height="18" viewBox="0 0 18 18" fill="none" xmlns="http://www.w3.org/2000/svg">
<path d="M15.75 5.25C15.75 3.59315 14.4069 2.25 12.75 2.25H5.25C3.59315 2.25 2.25 3.59315 2.25 5.25V12.75C2.25 14.4069 3.59315 15.75 5.25 15.75H12.75C14.4069 15.75 15.75 14.4069 15.75 12.75V5.25ZM17.25 12.75C17.25 15.2353 15.2353 17.25 12.75 17.25H5.25C2.76472 17.25 0.75 15.2353 0.75 12.75V5.25C0.75 2.76472 2.76472 0.75 5.25 0.75H12.75C15.2353 0.75 17.25 2.76472 17.25 5.25V12.75Z" fill="#E5E2DD"/>
<path d="M7.30447 5.63966C8.00454 5.27641 8.80164 5.14315 9.58181 5.2588C10.3777 5.37682 11.1145 5.74751 11.6834 6.31642C12.2523 6.88533 12.623 7.62212 12.741 8.41798C12.8566 9.19815 12.7234 9.99526 12.3601 10.6953C11.9968 11.3952 11.4219 11.9629 10.7176 12.3174C10.0131 12.6719 9.21493 12.7952 8.43631 12.6699C7.65756 12.5446 6.93838 12.1769 6.38064 11.6192C5.8229 11.0614 5.45517 10.3422 5.32986 9.56349C5.20458 8.78487 5.32791 7.9867 5.6824 7.28224C6.03693 6.57786 6.60458 6.00296 7.30447 5.63966ZM9.36209 6.7422C8.89398 6.67279 8.41593 6.75278 7.99588 6.97072C7.57584 7.18866 7.23502 7.53339 7.02224 7.95607C6.80948 8.37877 6.73516 8.85799 6.81033 9.32521C6.88552 9.79245 7.10655 10.224 7.44119 10.5586C7.77583 10.8933 8.20734 11.1143 8.67459 11.1895C9.14181 11.2646 9.62102 11.1903 10.0437 10.9776C10.4664 10.7648 10.8111 10.424 11.0291 10.0039C11.247 9.58387 11.327 9.10581 11.2576 8.63771C11.1868 8.16021 10.9642 7.7183 10.6228 7.37697C10.2815 7.03563 9.83959 6.81302 9.36209 6.7422Z" fill="#E5E2DD"/>
<path d="M13.1328 4.125C13.5469 4.12517 13.8828 4.46089 13.8828 4.875C13.8828 5.28911 13.5469 5.62483 13.1328 5.625H13.125C12.7108 5.625 12.375 5.28921 12.375 4.875C12.375 4.46079 12.7108 4.125 13.125 4.125H13.1328Z" fill="#E5E2DD"/>
</svg>
