<svg width="18" height="18" viewBox="0 0 18 18" fill="none" xmlns="http://www.w3.org/2000/svg">
<g clip-path="url(#clip0_51_890)">
<g clip-path="url(#clip1_51_890)">
<path fill-rule="evenodd" clip-rule="evenodd" d="M5.88858 1.87207C6.15391 1.87207 6.40444 1.99803 6.56144 2.21191L10.123 7.06836L15.078 2.11621C15.4035 1.79095 15.9304 1.79088 16.2558 2.11621C16.5812 2.44165 16.5812 2.96948 16.2558 3.29492L11.121 8.42969L16.3388 15.5459C16.5244 15.7991 16.552 16.1359 16.4101 16.416C16.2681 16.6958 15.9807 16.872 15.6669 16.8721H12.1112C11.8461 16.8721 11.5964 16.7459 11.4394 16.5322L7.87686 11.6738L2.92276 16.6279C2.59732 16.9534 2.06949 16.9534 1.74405 16.6279C1.41867 16.3025 1.41863 15.7746 1.74405 15.4492L6.87882 10.3125L1.66104 3.19824C1.47548 2.94503 1.44882 2.60817 1.59073 2.32812C1.73275 2.04855 2.01932 1.87221 2.33292 1.87207H5.88858ZM12.5331 15.2051H14.0224L9.39737 8.89746C9.36451 8.86004 9.33548 8.82068 9.31046 8.7793L5.46768 3.53906H3.97843L12.5331 15.2051Z" fill="#E5E2DD"/>
</g>
</g>
<defs>
<clipPath id="clip0_51_890">
<rect width="18" height="18" fill="white"/>
</clipPath>
<clipPath id="clip1_51_890">
<rect width="24" height="24" fill="white" transform="translate(-3 -2.62793)"/>
</clipPath>
</defs>
</svg>
